<svg width="14" height="15" viewBox="0 0 14 15" fill="none" xmlns="http://www.w3.org/2000/svg">
<path d="M13.7064 0.79289C14.0969 1.18341 14.0969 1.81658 13.7064 2.2071L2.37312 13.5404C1.9826 13.9309 1.34943 13.9309 0.958906 13.5404C0.568386 13.1499 0.568386 12.5168 0.958906 12.1263L12.2923 0.79289C12.6828 0.40237 13.3159 0.40237 13.7064 0.79289Z" fill="#F7F3ED"/>
<path d="M0 1.5C0 0.94772 0.44772 0.5 1 0.5H13C13.5523 0.5 14 0.94772 14 1.5V13.5C14 14.0523 13.5523 14.5 13 14.5C12.4477 14.5 12 14.0523 12 13.5V2.5H1C0.44772 2.5 0 2.05228 0 1.5Z" fill="#F7F3ED"/>
</svg>
