<svg width="14" height="15" viewBox="0 0 14 15" fill="none" xmlns="http://www.w3.org/2000/svg">
<path d="M13.7084 0.738203C14.0989 1.12872 14.0989 1.7619 13.7084 2.15242L2.37507 13.4857C1.98455 13.8762 1.35138 13.8762 0.960859 13.4857C0.570339 13.0952 0.570339 12.4621 0.960859 12.0716L12.2942 0.738203C12.6848 0.347682 13.3178 0.347682 13.7084 0.738203Z" fill="#8E714F"/>
<path d="M0 1.44531C0 0.893033 0.44772 0.445312 1 0.445312H13C13.5523 0.445312 14 0.893033 14 1.44531V13.4453C14 13.9976 13.5523 14.4453 13 14.4453C12.4477 14.4453 12 13.9976 12 13.4453V2.44531H1C0.44772 2.44531 0 1.99759 0 1.44531Z" fill="#8E714F"/>
</svg>
